<svg width="24" height="25" viewBox="0 0 24 25" fill="none" xmlns="http://www.w3.org/2000/svg">
<path d="M7.34149 10.5855L12.0027 5.92614L16.6659 10.5893L19.3766 7.8767L12.0027 0.500977L4.62891 7.8748L7.34149 10.5855Z" fill="#F3BA2F"/>
<path d="M0 12.5019L2.71069 9.78931L5.42327 12.5019L2.71069 15.2126L0 12.5019Z" fill="#F3BA2F"/>
<path d="M7.34149 14.4164L12.0027 19.0777L16.6659 14.4146L19.3785 17.1233L12.0046 24.4991L4.62891 17.129L7.34149 14.4164Z" fill="#F3BA2F"/>
<path d="M18.5771 12.5019L21.2878 9.78931L24.0004 12.5L21.2878 15.2145L18.5771 12.5019Z" fill="#F3BA2F"/>
<path d="M14.7529 12.4999L12.0024 9.74756L9.96848 11.7815L9.73343 12.0147L9.25195 12.4962L12.0024 15.2448L14.7529 12.5018V12.4999Z" fill="#F3BA2F"/>
</svg>
