<svg width="405" height="90" viewBox="0 0 405 90" fill="none" xmlns="http://www.w3.org/2000/svg">
<path d="M0.00221539 2.91034C0.00221539 1.303 1.30398 0 2.90978 0H73.2138C77.6279 0 81.2062 3.58172 81.2062 8V15.2193C81.2062 19.3434 79.6152 23.3083 76.7653 26.2866L47.8126 56.5437V21.6457H18.7196C8.38229 21.6457 0.00221539 13.2576 0.00221539 2.91034Z" fill="#64B337"/>
<path d="M81.204 87.0897C81.204 88.697 79.9022 90 78.2964 90H7.99237C3.57831 90 0 86.4183 0 82V74.7807C0 70.6566 1.59094 66.6917 4.44089 63.7134L33.3936 33.4563V68.3543H62.4865C72.8239 68.3543 81.204 76.7424 81.204 87.0897Z" fill="#64B337"/>
<path d="M232.193 8.78418C238.046 8.78418 242.358 10.2748 245.129 13.2562C247.9 16.2375 249.285 20.8655 249.285 27.1402C249.285 32.6175 247.865 36.7948 245.025 39.6722C242.185 42.5148 238.046 43.9362 232.609 43.9362C226.894 43.9362 222.548 42.4628 219.569 39.5162C216.591 36.5695 215.102 32.2535 215.102 26.5682C215.102 20.5708 216.504 16.1162 219.31 13.2042C222.149 10.2575 226.444 8.78418 232.193 8.78418ZM232.349 14.6602C229.128 14.6602 226.79 15.5788 225.336 17.4162C223.916 19.2188 223.206 22.1828 223.206 26.3082C223.206 30.3988 223.933 33.3975 225.388 35.3042C226.842 37.1762 229.163 38.1122 232.349 38.1122C235.362 38.1122 237.579 37.1588 238.999 35.2522C240.453 33.3108 241.181 30.3468 241.181 26.3602C241.181 22.3388 240.453 19.3922 238.999 17.5202C237.579 15.6135 235.362 14.6602 232.349 14.6602Z" fill="#FCFFFA"/>
<path d="M185.133 30.5719V43.7279H177.756V9.04395H194.692C197.324 9.04395 199.454 9.19995 201.082 9.51195C202.71 9.82395 204.424 10.6039 206.225 11.8519C208.026 13.0653 208.927 15.3533 208.927 18.7159C208.927 23.9506 206.727 27.3306 202.329 28.8559C204.58 29.6186 206.191 30.7106 207.16 32.1319C208.13 33.5186 208.615 35.6333 208.615 38.4759C208.615 39.8973 208.65 40.8506 208.719 41.3359C208.823 41.8213 209.065 42.6186 209.446 43.7279H201.186C200.978 43.0346 200.84 42.5319 200.77 42.2199C200.736 41.9079 200.58 40.4693 200.303 37.9039C200.06 35.3386 199.264 33.4839 197.913 32.3399C196.597 31.1613 194.311 30.5719 191.056 30.5719H185.133ZM185.133 24.3839H195.471C197.342 24.3839 198.692 24.0199 199.524 23.2919C200.355 22.5639 200.77 21.3506 200.77 19.6519C200.77 18.0573 200.355 16.9306 199.524 16.2719C198.727 15.5786 197.376 15.2319 195.471 15.2319H185.133V24.3839Z" fill="#FCFFFA"/>
<path d="M169.845 9.04395V15.2319H160.234C157.74 15.2319 155.905 15.4053 154.727 15.7519C153.584 16.0986 152.667 16.7226 151.974 17.6239C151.316 18.5253 150.883 19.3053 150.675 19.9639C150.467 20.6226 150.364 21.7666 150.364 23.3959H169.845V29.5839H150.364C150.641 32.5653 151.506 34.6453 152.961 35.8239C154.45 36.9679 156.979 37.5399 160.546 37.5399H169.845V43.7279H160.234C156.494 43.7279 153.619 43.4506 151.61 42.8959C149.636 42.3413 147.541 40.9026 145.324 38.5799C143.108 36.2573 142 32.2013 142 26.4119C142 19.9986 143.281 15.7173 145.844 13.5679C148.441 11.3839 150.415 10.0839 151.766 9.66795C153.152 9.25195 155.022 9.04395 157.377 9.04395H169.845Z" fill="#FCFFFA"/>
<path d="M128.061 15.2319H106.19V9.04395H136.321V15.4399L115.229 37.5399H136.321V43.7279H106.19V37.6959L128.061 15.2319Z" fill="#FCFFFA"/>
<path d="M367.137 43.7279V37.5399H382.929C385.458 37.5399 387.224 37.2453 388.228 36.6559C389.267 36.0319 389.787 34.9746 389.787 33.4839C389.787 30.6413 387.795 29.2199 383.813 29.2199H377.423C373.405 29.2199 370.409 28.3706 368.435 26.6719C366.461 24.9386 365.474 22.4426 365.474 19.1839C365.474 16.9999 366.028 15.0413 367.137 13.3079C368.245 11.5746 369.44 10.4826 370.721 10.0319C372.003 9.58128 373.18 9.30395 374.254 9.19995C375.327 9.09595 376.886 9.04395 378.929 9.04395H396.073V15.2319H380.592C378.999 15.2319 377.977 15.2493 377.527 15.2839C377.111 15.3186 376.349 15.4746 375.241 15.7519C374.167 15.9946 373.63 17.0866 373.63 19.0279C373.63 20.5186 374.081 21.5586 374.981 22.1479C375.916 22.7373 377.579 23.0319 379.968 23.0319H385.527C388.124 23.0319 390.151 23.2399 391.605 23.6559C393.094 24.0719 394.532 25.0079 395.917 26.4639C397.302 27.8853 397.995 30.2599 397.995 33.5879C397.995 35.4253 397.597 37.1413 396.8 38.7359C396.004 40.2959 395.051 41.4226 393.943 42.1159C392.869 42.7746 391.657 43.2079 390.306 43.4159C388.99 43.6239 387.068 43.7279 384.54 43.7279H367.137Z" fill="#64B337"/>
<path d="M328.936 43.7279V37.5399H344.729C347.258 37.5399 349.024 37.2453 350.028 36.6559C351.067 36.0319 351.587 34.9746 351.587 33.4839C351.587 30.6413 349.595 29.2199 345.612 29.2199H339.223C335.205 29.2199 332.209 28.3706 330.235 26.6719C328.261 24.9386 327.274 22.4426 327.274 19.1839C327.274 16.9999 327.828 15.0413 328.936 13.3079C330.045 11.5746 331.239 10.4826 332.521 10.0319C333.802 9.58128 334.98 9.30395 336.054 9.19995C337.127 9.09595 338.686 9.04395 340.729 9.04395H357.873V15.2319H342.391C340.798 15.2319 339.777 15.2493 339.326 15.2839C338.911 15.3186 338.149 15.4746 337.041 15.7519C335.967 15.9946 335.43 17.0866 335.43 19.0279C335.43 20.5186 335.88 21.5586 336.781 22.1479C337.716 22.7373 339.378 23.0319 341.768 23.0319H347.327C349.924 23.0319 351.95 23.2399 353.405 23.6559C354.894 24.0719 356.332 25.0079 357.717 26.4639C359.102 27.8853 359.795 30.2599 359.795 33.5879C359.795 35.4253 359.397 37.1413 358.6 38.7359C357.803 40.2959 356.851 41.4226 355.743 42.1159C354.669 42.7746 353.457 43.2079 352.106 43.4159C350.79 43.6239 348.868 43.7279 346.34 43.7279H328.936Z" fill="#64B337"/>
<path d="M304.642 8.78418C310.495 8.78418 314.807 10.2748 317.578 13.2562C320.348 16.2375 321.734 20.8655 321.734 27.1402C321.734 32.6175 320.314 36.7948 317.474 39.6722C314.634 42.5148 310.495 43.9362 305.058 43.9362C299.343 43.9362 294.997 42.4628 292.018 39.5162C289.04 36.5695 287.55 32.2535 287.55 26.5682C287.55 20.5708 288.953 16.1162 291.758 13.2042C294.598 10.2575 298.893 8.78418 304.642 8.78418ZM304.798 14.6602C301.577 14.6602 299.239 15.5788 297.785 17.4162C296.365 19.2188 295.655 22.1828 295.655 26.3082C295.655 30.3988 296.382 33.3975 297.836 35.3042C299.291 37.1762 301.612 38.1122 304.798 38.1122C307.811 38.1122 310.027 37.1588 311.447 35.2522C312.902 33.3108 313.629 30.3468 313.629 26.3602C313.629 22.3388 312.902 19.3922 311.447 17.5202C310.027 15.6135 307.811 14.6602 304.798 14.6602Z" fill="#64B337"/>
<path d="M259.278 9.04395H266.655V28.4919C266.655 30.1213 266.673 31.1613 266.707 31.6119C266.742 32.0279 266.863 32.9639 267.071 34.4199C267.313 35.8759 268.196 36.7426 269.72 37.0199C271.244 37.2973 272.318 37.4533 272.941 37.4879C273.599 37.5226 274.604 37.5399 275.954 37.5399H283.02V43.7279H275.175L271.227 43.6759C268.664 43.6759 266.551 43.2253 264.889 42.3239C263.227 41.3879 261.997 40.2266 261.2 38.8399C260.404 37.4186 259.884 35.9626 259.642 34.4719C259.4 32.9466 259.278 30.9533 259.278 28.4919V9.04395Z" fill="#64B337"/>
<path d="M401 69.708C401.718 69.708 402.343 69.876 402.874 70.212C403.406 70.548 403.788 70.9727 404.021 71.486V69.82H405V77.66C405 78.36 404.846 78.9807 404.539 79.522C404.24 80.0633 403.821 80.4787 403.28 80.768C402.739 81.0667 402.124 81.216 401.434 81.216C400.455 81.216 399.639 80.9827 398.986 80.516C398.343 80.0493 397.942 79.4147 397.783 78.612H398.748C398.916 79.144 399.233 79.5687 399.699 79.886C400.175 80.2033 400.753 80.362 401.434 80.362C401.928 80.362 402.371 80.2547 402.762 80.04C403.154 79.8347 403.462 79.5267 403.686 79.116C403.909 78.7053 404.021 78.22 404.021 77.66V75.77C403.779 76.2927 403.392 76.7267 402.86 77.072C402.338 77.408 401.718 77.576 401 77.576C400.301 77.576 399.671 77.4127 399.112 77.086C398.562 76.7593 398.128 76.2973 397.811 75.7C397.503 75.1027 397.35 74.412 397.35 73.628C397.35 72.844 397.503 72.158 397.811 71.57C398.128 70.9727 398.562 70.5153 399.112 70.198C399.671 69.8713 400.301 69.708 401 69.708ZM404.021 73.642C404.021 73.026 403.895 72.4847 403.644 72.018C403.392 71.5513 403.047 71.192 402.609 70.94C402.18 70.688 401.704 70.562 401.182 70.562C400.641 70.562 400.156 70.6833 399.727 70.926C399.298 71.1687 398.958 71.5233 398.706 71.99C398.464 72.4473 398.343 72.9933 398.343 73.628C398.343 74.2533 398.464 74.804 398.706 75.28C398.958 75.7467 399.298 76.106 399.727 76.358C400.156 76.6007 400.641 76.722 401.182 76.722C401.704 76.722 402.18 76.596 402.609 76.344C403.047 76.092 403.392 75.7327 403.644 75.266C403.895 74.7993 404.021 74.258 404.021 73.642Z" fill="white"/>
<path d="M390.289 69.6797C391.203 69.6797 391.949 69.9644 392.527 70.5337C393.105 71.0937 393.394 71.9104 393.394 72.9837V77.4637H392.429V73.0957C392.429 72.265 392.219 71.6304 391.8 71.1917C391.389 70.753 390.825 70.5337 390.107 70.5337C389.371 70.5337 388.783 70.767 388.345 71.2337C387.907 71.7004 387.688 72.3864 387.688 73.2917V77.4637H386.708V69.8197H387.688V71.1217C387.93 70.655 388.28 70.3004 388.737 70.0577C389.193 69.8057 389.711 69.6797 390.289 69.6797Z" fill="white"/>
<path d="M381.765 68.378C381.569 68.378 381.401 68.308 381.261 68.168C381.121 68.028 381.051 67.8554 381.051 67.65C381.051 67.4447 381.121 67.2767 381.261 67.146C381.401 67.006 381.569 66.936 381.765 66.936C381.961 66.936 382.129 67.006 382.269 67.146C382.409 67.2767 382.479 67.4447 382.479 67.65C382.479 67.8554 382.409 68.028 382.269 68.168C382.129 68.308 381.961 68.378 381.765 68.378ZM382.255 69.82V77.464H381.275V69.82H382.255Z" fill="white"/>
<path d="M369.15 73.628C369.15 72.844 369.309 72.158 369.626 71.57C369.943 70.9727 370.377 70.5153 370.927 70.198C371.486 69.8713 372.116 69.708 372.815 69.708C373.486 69.708 374.092 69.8713 374.633 70.198C375.174 70.5247 375.57 70.9493 375.822 71.472V67.104H376.801V77.464H375.822V75.756C375.589 76.288 375.207 76.7267 374.675 77.072C374.144 77.408 373.519 77.576 372.801 77.576C372.102 77.576 371.472 77.4127 370.913 77.086C370.363 76.7593 369.929 76.2973 369.612 75.7C369.304 75.1027 369.15 74.412 369.15 73.628ZM375.822 73.642C375.822 73.026 375.696 72.4847 375.444 72.018C375.193 71.5513 374.848 71.192 374.409 70.94C373.98 70.688 373.505 70.562 372.983 70.562C372.442 70.562 371.957 70.6833 371.528 70.926C371.099 71.1687 370.759 71.5233 370.507 71.99C370.265 72.4473 370.143 72.9933 370.143 73.628C370.143 74.2533 370.265 74.804 370.507 75.28C370.759 75.7467 371.099 76.106 371.528 76.358C371.957 76.6007 372.442 76.722 372.983 76.722C373.505 76.722 373.98 76.596 374.409 76.344C374.848 76.092 375.193 75.7327 375.444 75.266C375.696 74.7993 375.822 74.258 375.822 73.642Z" fill="white"/>
<path d="M357.475 73.628C357.475 72.844 357.628 72.158 357.936 71.57C358.253 70.9727 358.687 70.5153 359.237 70.198C359.796 69.8713 360.426 69.708 361.125 69.708C361.852 69.708 362.477 69.876 362.999 70.212C363.531 70.548 363.913 70.9773 364.146 71.5V69.82H365.125V77.464H364.146V75.77C363.904 76.2927 363.517 76.7267 362.985 77.072C362.463 77.408 361.838 77.576 361.111 77.576C360.421 77.576 359.796 77.4127 359.237 77.086C358.687 76.7593 358.253 76.2973 357.936 75.7C357.628 75.1027 357.475 74.412 357.475 73.628ZM364.146 73.642C364.146 73.026 364.02 72.4847 363.769 72.018C363.517 71.5513 363.172 71.192 362.734 70.94C362.305 70.688 361.829 70.562 361.307 70.562C360.766 70.562 360.281 70.6833 359.852 70.926C359.423 71.1687 359.083 71.5233 358.831 71.99C358.589 72.4473 358.468 72.9933 358.468 73.628C358.468 74.2533 358.589 74.804 358.831 75.28C359.083 75.7467 359.423 76.106 359.852 76.358C360.281 76.6007 360.766 76.722 361.307 76.722C361.829 76.722 362.305 76.596 362.734 76.344C363.172 76.092 363.517 75.7327 363.769 75.266C364.02 74.7993 364.146 74.258 364.146 73.642Z" fill="white"/>
<path d="M351.596 71.1777C351.81 70.7017 352.137 70.333 352.575 70.0717C353.022 69.8104 353.568 69.6797 354.211 69.6797V70.7017H353.946C353.237 70.7017 352.668 70.893 352.239 71.2757C351.81 71.6584 351.596 72.2977 351.596 73.1937V77.4637H350.617V69.8197H351.596V71.1777Z" fill="white"/>
<path d="M346.833 67.6777V68.4897H344.12V77.4637H343.14V68.4897H340.413V67.6777H346.833Z" fill="white"/>
<path d="M331.007 73.25C331.007 73.586 330.998 73.8427 330.979 74.02H324.643C324.671 74.5987 324.811 75.0933 325.063 75.504C325.315 75.9147 325.646 76.2273 326.056 76.442C326.466 76.6473 326.914 76.75 327.399 76.75C328.033 76.75 328.564 76.596 328.993 76.288C329.432 75.98 329.721 75.5647 329.86 75.042H330.895C330.709 75.7887 330.308 76.4 329.693 76.876C329.087 77.3427 328.322 77.576 327.399 77.576C326.681 77.576 326.037 77.4173 325.469 77.1C324.9 76.7733 324.452 76.316 324.126 75.728C323.809 75.1307 323.65 74.4353 323.65 73.642C323.65 72.8487 323.809 72.1533 324.126 71.556C324.443 70.9587 324.886 70.5013 325.455 70.184C326.023 69.8667 326.672 69.708 327.399 69.708C328.126 69.708 328.76 69.8667 329.301 70.184C329.851 70.5013 330.271 70.9307 330.56 71.472C330.858 72.004 331.007 72.5967 331.007 73.25ZM330.014 73.222C330.024 72.6527 329.907 72.1673 329.665 71.766C329.432 71.3647 329.11 71.0613 328.7 70.856C328.289 70.6507 327.842 70.548 327.357 70.548C326.63 70.548 326.009 70.7813 325.497 71.248C324.984 71.7147 324.699 72.3727 324.643 73.222H330.014Z" fill="white"/>
<path d="M317.772 71.1777C317.986 70.7017 318.312 70.333 318.751 70.0717C319.198 69.8104 319.744 69.6797 320.387 69.6797V70.7017H320.121C319.413 70.7017 318.844 70.893 318.415 71.2757C317.986 71.6584 317.772 72.2977 317.772 73.1937V77.4637H316.792V69.8197H317.772V71.1777Z" fill="white"/>
<path d="M312.319 69.8198V77.4638H311.34V76.1198C311.117 76.5958 310.772 76.9598 310.305 77.2118C309.839 77.4638 309.317 77.5898 308.739 77.5898C307.825 77.5898 307.079 77.3098 306.501 76.7498C305.923 76.1805 305.634 75.3592 305.634 74.2858V69.8198H306.599V74.1738C306.599 75.0045 306.804 75.6392 307.214 76.0778C307.634 76.5165 308.203 76.7358 308.921 76.7358C309.657 76.7358 310.245 76.5025 310.683 76.0358C311.121 75.5692 311.34 74.8832 311.34 73.9778V69.8198H312.319Z" fill="white"/>
<path d="M299.753 70.6459V75.3919C299.753 75.8585 299.842 76.1805 300.019 76.3579C300.196 76.5352 300.509 76.6239 300.956 76.6239H301.851V77.4639H300.802C300.112 77.4639 299.599 77.3052 299.264 76.9879C298.928 76.6612 298.76 76.1292 298.76 75.3919V70.6459H297.697V69.8199H298.76V67.9019H299.753V69.8199H301.851V70.6459H299.753Z" fill="white"/>
<path d="M294.007 69.8198V77.4638H293.028V76.1198C292.805 76.5958 292.46 76.9598 291.993 77.2118C291.527 77.4638 291.005 77.5898 290.427 77.5898C289.513 77.5898 288.767 77.3098 288.189 76.7498C287.611 76.1805 287.322 75.3592 287.322 74.2858V69.8198H288.287V74.1738C288.287 75.0045 288.492 75.6392 288.902 76.0778C289.322 76.5165 289.891 76.7358 290.609 76.7358C291.345 76.7358 291.933 76.5025 292.371 76.0358C292.809 75.5692 293.028 74.8832 293.028 73.9778V69.8198H294.007Z" fill="white"/>
<path d="M283.543 67.6777V68.4897H279.235V72.1437H282.871V72.9557H279.235V77.4637H278.256V67.6777H283.543Z" fill="white"/>
<path d="M264.311 77.576C263.593 77.576 262.945 77.4173 262.367 77.1C261.798 76.7733 261.346 76.316 261.011 75.728C260.684 75.1307 260.521 74.4353 260.521 73.642C260.521 72.8487 260.689 72.158 261.025 71.57C261.36 70.9727 261.817 70.5153 262.395 70.198C262.973 69.8713 263.621 69.708 264.339 69.708C265.057 69.708 265.705 69.8713 266.283 70.198C266.871 70.5153 267.328 70.9727 267.654 71.57C267.99 72.158 268.158 72.8487 268.158 73.642C268.158 74.426 267.99 75.1167 267.654 75.714C267.319 76.3113 266.857 76.7733 266.27 77.1C265.682 77.4173 265.029 77.576 264.311 77.576ZM264.311 76.722C264.815 76.722 265.281 76.61 265.71 76.386C266.139 76.1527 266.484 75.8073 266.745 75.35C267.015 74.8833 267.151 74.314 267.151 73.642C267.151 72.97 267.02 72.4053 266.759 71.948C266.498 71.4813 266.153 71.136 265.724 70.912C265.295 70.6787 264.829 70.562 264.325 70.562C263.822 70.562 263.356 70.6787 262.927 70.912C262.498 71.136 262.153 71.4813 261.892 71.948C261.64 72.4053 261.514 72.97 261.514 73.642C261.514 74.314 261.64 74.8833 261.892 75.35C262.153 75.8073 262.493 76.1527 262.913 76.386C263.342 76.61 263.808 76.722 264.311 76.722Z" fill="white"/>
<path d="M255.018 70.6459V75.3919C255.018 75.8585 255.107 76.1805 255.284 76.3579C255.461 76.5352 255.773 76.6239 256.221 76.6239H257.116V77.4639H256.067C255.377 77.4639 254.864 77.3052 254.528 76.9879C254.193 76.6612 254.025 76.1292 254.025 75.3919V70.6459H252.962V69.8199H254.025V67.9019H255.018V69.8199H257.116V70.6459H255.018Z" fill="white"/>
<path d="M243.034 71.5C243.276 70.9867 243.659 70.562 244.181 70.226C244.712 69.8807 245.342 69.708 246.069 69.708C246.759 69.708 247.379 69.8713 247.929 70.198C248.489 70.5153 248.922 70.9727 249.23 71.57C249.547 72.158 249.706 72.844 249.706 73.628C249.706 74.412 249.547 75.1027 249.23 75.7C248.922 76.2973 248.489 76.7593 247.929 77.086C247.379 77.4127 246.759 77.576 246.069 77.576C245.351 77.576 244.726 77.408 244.195 77.072C243.663 76.7267 243.276 76.2973 243.034 75.784V81.076H242.069V69.82H243.034V71.5ZM248.713 73.628C248.713 72.9933 248.587 72.4473 248.335 71.99C248.092 71.5233 247.757 71.1687 247.328 70.926C246.899 70.6833 246.414 70.562 245.873 70.562C245.351 70.562 244.871 70.688 244.433 70.94C244.004 71.192 243.663 71.5513 243.412 72.018C243.16 72.4847 243.034 73.026 243.034 73.642C243.034 74.258 243.16 74.7993 243.412 75.266C243.663 75.7327 244.004 76.092 244.433 76.344C244.871 76.596 245.351 76.722 245.873 76.722C246.414 76.722 246.899 76.6007 247.328 76.358C247.757 76.106 248.092 75.7467 248.335 75.28C248.587 74.804 248.713 74.2533 248.713 73.628Z" fill="white"/>
<path d="M238.503 69.8198L233.972 81.0618H232.951L234.433 77.4218L231.3 69.8198H232.377L234.979 76.3438L237.496 69.8198H238.503Z" fill="white"/>
<path d="M225.883 71.1777C226.098 70.7017 226.424 70.333 226.862 70.0717C227.31 69.8104 227.855 69.6797 228.499 69.6797V70.7017H228.233C227.524 70.7017 226.956 70.893 226.527 71.2757C226.098 71.6584 225.883 72.2977 225.883 73.1937V77.4637H224.904V69.8197H225.883V71.1777Z" fill="white"/>
<path d="M211.428 72.5639C211.428 71.6026 211.638 70.7439 212.058 69.9879C212.477 69.2226 213.051 68.6299 213.778 68.2099C214.505 67.7806 215.317 67.5659 216.212 67.5659C217.303 67.5659 218.235 67.8273 219.009 68.3499C219.792 68.8633 220.361 69.5913 220.715 70.5339H219.568C219.289 69.8713 218.86 69.3533 218.282 68.9799C217.713 68.6066 217.023 68.4199 216.212 68.4199C215.494 68.4199 214.846 68.5879 214.268 68.9239C213.699 69.2599 213.251 69.7453 212.925 70.3799C212.598 71.0053 212.435 71.7333 212.435 72.5639C212.435 73.3946 212.598 74.1226 212.925 74.7479C213.251 75.3733 213.699 75.8539 214.268 76.1899C214.846 76.5259 215.494 76.6939 216.212 76.6939C217.023 76.6939 217.713 76.5119 218.282 76.1479C218.86 75.7746 219.289 75.2613 219.568 74.6079H220.715C220.361 75.5413 219.792 76.2646 219.009 76.7779C218.226 77.2913 217.293 77.5479 216.212 77.5479C215.317 77.5479 214.505 77.3379 213.778 76.9179C213.051 76.4886 212.477 75.8959 212.058 75.1399C211.638 74.3839 211.428 73.5253 211.428 72.5639Z" fill="white"/>
<path d="M193.676 73.628C193.676 72.844 193.835 72.158 194.152 71.57C194.469 70.9727 194.902 70.5153 195.453 70.198C196.012 69.8713 196.641 69.708 197.341 69.708C198.012 69.708 198.618 69.8713 199.159 70.198C199.7 70.5247 200.096 70.9493 200.348 71.472V67.104H201.327V77.464H200.348V75.756C200.115 76.288 199.732 76.7267 199.201 77.072C198.67 77.408 198.045 77.576 197.327 77.576C196.627 77.576 195.998 77.4127 195.439 77.086C194.888 76.7593 194.455 76.2973 194.138 75.7C193.83 75.1027 193.676 74.412 193.676 73.628ZM200.348 73.642C200.348 73.026 200.222 72.4847 199.97 72.018C199.719 71.5513 199.373 71.192 198.935 70.94C198.506 70.688 198.031 70.562 197.509 70.562C196.968 70.562 196.483 70.6833 196.054 70.926C195.625 71.1687 195.285 71.5233 195.033 71.99C194.791 72.4473 194.669 72.9933 194.669 73.628C194.669 74.2533 194.791 74.804 195.033 75.28C195.285 75.7467 195.625 76.106 196.054 76.358C196.483 76.6007 196.968 76.722 197.509 76.722C198.031 76.722 198.506 76.596 198.935 76.344C199.373 76.092 199.719 75.7327 199.97 75.266C200.222 74.7993 200.348 74.258 200.348 73.642Z" fill="white"/>
<path d="M190.095 73.25C190.095 73.586 190.085 73.8427 190.067 74.02H183.731C183.759 74.5987 183.899 75.0933 184.15 75.504C184.402 75.9147 184.733 76.2273 185.144 76.442C185.554 76.6473 186.001 76.75 186.486 76.75C187.12 76.75 187.652 76.596 188.081 76.288C188.519 75.98 188.808 75.5647 188.948 75.042H189.983C189.796 75.7887 189.395 76.4 188.78 76.876C188.174 77.3427 187.409 77.576 186.486 77.576C185.768 77.576 185.125 77.4173 184.556 77.1C183.987 76.7733 183.54 76.316 183.213 75.728C182.896 75.1307 182.738 74.4353 182.738 73.642C182.738 72.8487 182.896 72.1533 183.213 71.556C183.53 70.9587 183.973 70.5013 184.542 70.184C185.111 69.8667 185.759 69.708 186.486 69.708C187.214 69.708 187.848 69.8667 188.388 70.184C188.939 70.5013 189.358 70.9307 189.647 71.472C189.946 72.004 190.095 72.5967 190.095 73.25ZM189.102 73.222C189.111 72.6527 188.994 72.1673 188.752 71.766C188.519 71.3647 188.197 71.0613 187.787 70.856C187.377 70.6507 186.929 70.548 186.444 70.548C185.717 70.548 185.097 70.7813 184.584 71.248C184.071 71.7147 183.787 72.3727 183.731 73.222H189.102Z" fill="white"/>
<path d="M177.235 70.6459V75.3919C177.235 75.8585 177.323 76.1805 177.5 76.3579C177.678 76.5352 177.99 76.6239 178.438 76.6239H179.333V77.4639H178.284C177.594 77.4639 177.081 77.3052 176.745 76.9879C176.41 76.6612 176.242 76.1292 176.242 75.3919V70.6459H175.179V69.8199H176.242V67.9019H177.235V69.8199H179.333V70.6459H177.235Z" fill="white"/>
<path d="M163.838 73.628C163.838 72.844 163.992 72.158 164.3 71.57C164.617 70.9727 165.051 70.5153 165.601 70.198C166.16 69.8713 166.79 69.708 167.489 69.708C168.216 69.708 168.841 69.876 169.363 70.212C169.895 70.548 170.277 70.9773 170.51 71.5V69.82H171.489V77.464H170.51V75.77C170.268 76.2927 169.881 76.7267 169.349 77.072C168.827 77.408 168.202 77.576 167.475 77.576C166.785 77.576 166.16 77.4127 165.601 77.086C165.051 76.7593 164.617 76.2973 164.3 75.7C163.992 75.1027 163.838 74.412 163.838 73.628ZM170.51 73.642C170.51 73.026 170.384 72.4847 170.132 72.018C169.881 71.5513 169.536 71.192 169.097 70.94C168.668 70.688 168.193 70.562 167.671 70.562C167.13 70.562 166.645 70.6833 166.216 70.926C165.787 71.1687 165.447 71.5233 165.195 71.99C164.953 72.4473 164.831 72.9933 164.831 73.628C164.831 74.2533 164.953 74.804 165.195 75.28C165.447 75.7467 165.787 76.106 166.216 76.358C166.645 76.6007 167.13 76.722 167.671 76.722C168.193 76.722 168.668 76.596 169.097 76.344C169.536 76.092 169.881 75.7327 170.132 75.266C170.384 74.7993 170.51 74.258 170.51 73.642Z" fill="white"/>
<path d="M156.838 69.6797C157.734 69.6797 158.461 69.9644 159.02 70.5337C159.589 71.0937 159.873 71.9104 159.873 72.9837V77.4637H158.908V73.0957C158.908 72.265 158.708 71.6304 158.307 71.1917C157.906 70.753 157.361 70.5337 156.671 70.5337C155.953 70.5337 155.379 70.7717 154.95 71.2477C154.521 71.7237 154.307 72.4144 154.307 73.3197V77.4637H153.342V73.0957C153.342 72.265 153.141 71.6304 152.74 71.1917C152.339 70.753 151.789 70.5337 151.09 70.5337C150.372 70.5337 149.798 70.7717 149.37 71.2477C148.941 71.7237 148.726 72.4144 148.726 73.3197V77.4637H147.747V69.8197H148.726V71.1357C148.969 70.6597 149.314 70.3004 149.761 70.0577C150.209 69.8057 150.708 69.6797 151.258 69.6797C151.92 69.6797 152.498 69.8384 152.992 70.1557C153.496 70.473 153.859 70.9397 154.083 71.5557C154.288 70.949 154.638 70.487 155.132 70.1697C155.636 69.843 156.204 69.6797 156.838 69.6797Z" fill="white"/>
<path d="M139.878 77.576C139.16 77.576 138.512 77.4173 137.934 77.1C137.365 76.7733 136.913 76.316 136.577 75.728C136.251 75.1307 136.088 74.4353 136.088 73.642C136.088 72.8487 136.256 72.158 136.591 71.57C136.927 70.9727 137.384 70.5153 137.962 70.198C138.54 69.8713 139.188 69.708 139.906 69.708C140.624 69.708 141.272 69.8713 141.85 70.198C142.438 70.5153 142.895 70.9727 143.221 71.57C143.557 72.158 143.725 72.8487 143.725 73.642C143.725 74.426 143.557 75.1167 143.221 75.714C142.885 76.3113 142.424 76.7733 141.836 77.1C141.249 77.4173 140.596 77.576 139.878 77.576ZM139.878 76.722C140.382 76.722 140.848 76.61 141.277 76.386C141.706 76.1527 142.051 75.8073 142.312 75.35C142.582 74.8833 142.718 74.314 142.718 73.642C142.718 72.97 142.587 72.4053 142.326 71.948C142.065 71.4813 141.72 71.136 141.291 70.912C140.862 70.6787 140.396 70.562 139.892 70.562C139.389 70.562 138.923 70.6787 138.494 70.912C138.065 71.136 137.72 71.4813 137.459 71.948C137.207 72.4053 137.081 72.97 137.081 73.642C137.081 74.314 137.207 74.8833 137.459 75.35C137.72 75.8073 138.06 76.1527 138.48 76.386C138.909 76.61 139.375 76.722 139.878 76.722Z" fill="white"/>
<path d="M130.585 70.6459V75.3919C130.585 75.8585 130.673 76.1805 130.851 76.3579C131.028 76.5352 131.34 76.6239 131.788 76.6239H132.683V77.4639H131.634C130.944 77.4639 130.431 77.3052 130.095 76.9879C129.76 76.6612 129.592 76.1292 129.592 75.3919V70.6459H128.529V69.8199H129.592V67.9019H130.585V69.8199H132.683V70.6459H130.585Z" fill="white"/>
<path d="M124.839 69.8198V77.4638H123.86V76.1198C123.636 76.5958 123.291 76.9598 122.825 77.2118C122.359 77.4638 121.836 77.5898 121.258 77.5898C120.345 77.5898 119.599 77.3098 119.02 76.7498C118.442 76.1805 118.153 75.3592 118.153 74.2858V69.8198H119.118V74.1738C119.118 75.0045 119.324 75.6392 119.734 76.0778C120.153 76.5165 120.722 76.7358 121.44 76.7358C122.177 76.7358 122.764 76.5025 123.202 76.0358C123.641 75.5692 123.86 74.8832 123.86 73.9778V69.8198H124.839Z" fill="white"/>
<path d="M112.526 75.1397H108.078L107.225 77.4637H106.19L109.757 67.8037H110.861L114.414 77.4637H113.379L112.526 75.1397ZM112.232 74.3277L110.302 69.0357L108.372 74.3277H112.232Z" fill="white"/>
</svg>
