<svg width="28" height="27" viewBox="0 0 28 27" fill="none" xmlns="http://www.w3.org/2000/svg">
<path fill-rule="evenodd" clip-rule="evenodd" d="M13.8797 23.7796C13.7301 23.7796 13.5838 23.7991 13.4439 23.8284V18.3845H14.3187V23.8284C14.1789 23.7991 14.0293 23.7796 13.8797 23.7796ZM18.7545 23.7796C18.6049 23.7796 18.4586 23.7991 18.3155 23.8284V18.3845H19.1903V23.8284C19.0504 23.7991 18.9041 23.7796 18.7545 23.7796ZM23.6293 23.7796C23.4764 23.7796 23.3301 23.7991 23.1903 23.8284V18.3845H24.0651V23.8284C23.9252 23.7991 23.7789 23.7796 23.6293 23.7796ZM11.6163 9.41861V8.23162C11.6163 7.3243 12.3512 6.58934 13.2586 6.58934C14.1659 6.58934 14.9041 7.3243 14.9041 8.23162V9.41861C14.9041 10.3259 14.1659 11.0641 13.2586 11.0641C12.3512 11.0641 11.6163 10.3259 11.6163 9.41861ZM12.4911 8.23162V9.41861C12.4911 9.84463 12.8358 10.1893 13.2586 10.1893C13.6813 10.1893 14.026 9.84463 14.026 9.42186V8.23162C14.026 7.80886 13.6813 7.46414 13.2586 7.46414C12.8358 7.46414 12.4911 7.80886 12.4911 8.23162ZM15.6 10.6316C15.6 10.391 15.7951 10.1958 16.0358 10.1958H16.5659V8.08203L16.4748 8.17633C16.3025 8.34869 16.026 8.34869 15.8537 8.17633C15.6846 8.00398 15.6846 7.72755 15.8537 7.55845L16.696 6.71617C16.8195 6.58934 17.0082 6.55357 17.174 6.62186C17.3366 6.69016 17.4439 6.84951 17.4439 7.02512V10.1958H17.9675C18.2114 10.1958 18.4065 10.391 18.4065 10.6316C18.4065 10.8755 18.2114 11.0706 17.9675 11.0706H16.0358C15.7951 11.0706 15.6 10.8755 15.6 10.6316ZM19.1025 9.41861V8.23162C19.1025 7.3243 19.8407 6.58934 20.7447 6.58934C21.6521 6.58934 22.3903 7.3243 22.3903 8.23162V9.41861C22.3903 10.3259 21.6521 11.0641 20.7447 11.0641C19.8407 11.0641 19.1025 10.3259 19.1025 9.41861ZM19.9773 9.41861C19.9773 9.84463 20.322 10.1893 20.7447 10.1893C21.1708 10.1893 21.5155 9.84463 21.5155 9.42186V8.23162C21.5155 7.80886 21.1708 7.46414 20.7447 7.46414C20.322 7.46414 19.9773 7.80886 19.9773 8.23162V9.41861ZM23.0862 10.6316C23.0862 10.391 23.2813 10.1958 23.5252 10.1958H24.0553V8.08203L23.961 8.17633C23.7919 8.34869 23.5122 8.34869 23.3431 8.17633C23.1708 8.00398 23.1708 7.72755 23.3431 7.55845L24.1821 6.71617C24.309 6.58934 24.4976 6.55357 24.6602 6.62186C24.8228 6.69016 24.9301 6.84951 24.9301 7.02512V10.1958H25.4537C25.6976 10.1958 25.8927 10.391 25.8927 10.6316C25.8927 10.8755 25.6976 11.0706 25.4537 11.0706H23.5252C23.2813 11.0706 23.0862 10.8755 23.0862 10.6316ZM11.6163 3.04138V1.85438C11.6163 0.947066 12.3512 0.208855 13.2586 0.208855C14.1659 0.208855 14.9041 0.947066 14.9041 1.85438V3.04138C14.9041 3.94869 14.1659 4.6869 13.2586 4.6869C12.3512 4.6869 11.6163 3.94869 11.6163 3.04138ZM12.4911 1.85438V3.04138C12.4911 3.46414 12.8358 3.80886 13.2586 3.80886C13.6813 3.80886 14.026 3.46414 14.026 3.04138V1.85438C14.026 1.43162 13.6813 1.0869 13.2586 1.0869C12.8358 1.08365 12.4911 1.42837 12.4911 1.85438ZM16.5659 3.81536V1.70479L16.4748 1.7991C16.3025 1.9682 16.026 1.9682 15.8537 1.7991C15.6846 1.62674 15.6846 1.35032 15.8537 1.17796L16.696 0.338936C16.8195 0.212107 17.0082 0.176335 17.174 0.241375C17.3366 0.309668 17.4439 0.469018 17.4439 0.647879V3.81536H17.9675C18.2114 3.81536 18.4065 4.01048 18.4065 4.25438C18.4065 4.49503 18.2114 4.69016 17.9675 4.69016H16.0358C15.7951 4.69016 15.6 4.49503 15.6 4.25438C15.6 4.01048 15.7951 3.81536 16.0358 3.81536H16.5659ZM19.1025 3.04138V1.85438C19.1025 0.947066 19.8407 0.208855 20.7447 0.208855C21.6521 0.208855 22.3903 0.947066 22.3903 1.85438V3.04138C22.3903 3.94869 21.6521 4.6869 20.7447 4.6869C19.8407 4.6869 19.1025 3.94869 19.1025 3.04138ZM19.9773 3.04138C19.9773 3.46414 20.322 3.80886 20.7447 3.80886C21.1708 3.80886 21.5155 3.46414 21.5155 3.04138V1.85438C21.5155 1.43162 21.1708 1.0869 20.7447 1.0869C20.322 1.0869 19.9773 1.43162 19.9773 1.85438V3.04138ZM24.0553 3.81536V1.70479L23.961 1.79585C23.7919 1.9682 23.5122 1.9682 23.3431 1.79585C23.1708 1.62674 23.1708 1.35032 23.3431 1.17796L24.1821 0.335684C24.309 0.212107 24.4976 0.173083 24.6602 0.241375C24.8228 0.309668 24.9301 0.469018 24.9301 0.647879V3.81536H25.4537C25.6976 3.81536 25.8927 4.01048 25.8927 4.25438C25.8927 4.49503 25.6976 4.69016 25.4537 4.69016H23.5252C23.2813 4.69016 23.0862 4.49503 23.0862 4.25438C23.0862 4.01048 23.2813 3.81536 23.5252 3.81536H24.0553ZM27.4862 15.3698L25.3008 17.5097H12.0293C11.8537 17.5097 11.6943 17.6137 11.626 17.7731C11.0407 19.1259 9.974 20.1959 8.61791 20.7812C7.20327 21.3926 5.63579 21.4186 4.20165 20.8495C2.7675 20.2837 1.63904 19.191 1.02441 17.7731C0.413028 16.3585 0.387012 14.7877 0.956118 13.3503C1.52522 11.9162 2.61791 10.7877 4.03254 10.1731C6.95287 8.90804 10.361 10.2576 11.626 13.1812C11.6943 13.3406 11.8537 13.4446 12.0293 13.4446H15.2065L16.4033 15.0804C16.4846 15.1942 16.6147 15.2593 16.7545 15.2593C16.8943 15.2593 17.0277 15.1942 17.109 15.0804L18.2212 13.5552L19.3366 15.0804C19.4212 15.1942 19.5512 15.2593 19.6911 15.2593C19.8309 15.2593 19.9643 15.1942 20.0456 15.0804L21.1773 13.5259L22.3155 15.0804C22.4 15.1942 22.5301 15.2593 22.6699 15.2593C22.6699 15.2625 22.8846 15.269 23.0244 15.0804L24.2114 13.4511H25.3138L27.4862 15.3698ZM7.18376 15.4739C7.18376 14.0788 6.04555 12.9406 4.65043 12.9406H4.64392C3.24555 12.9406 2.11059 14.082 2.11059 15.4804C2.11059 16.8788 3.2488 18.0137 4.65043 18.0137C6.04555 18.0137 7.18376 16.8755 7.18376 15.4739ZM6.30896 15.4739C6.30896 16.391 5.56425 17.1389 4.65043 17.1389C3.73335 17.1389 2.98539 16.3942 2.98539 15.4804C2.98539 14.5633 3.7301 13.8186 4.64392 13.8186H4.65043C5.56425 13.8186 6.30896 14.5601 6.30896 15.4739ZM24.7415 25.7698C24.7415 26.3845 24.2407 26.8853 23.626 26.8853C23.0114 26.8853 22.5106 26.3845 22.5106 25.7698C22.5106 25.1552 23.0114 24.6544 23.626 24.6544C24.2407 24.6544 24.7415 25.1552 24.7415 25.7698ZM19.8667 25.7698C19.8667 26.3845 19.3691 26.8853 18.7512 26.8853C18.1366 26.8853 17.6358 26.3845 17.6358 25.7698C17.6358 25.1552 18.1366 24.6544 18.7512 24.6544C19.3691 24.6544 19.8699 25.1552 19.8667 25.7698ZM14.9951 25.7698C14.9951 26.3845 14.4943 26.8853 13.8797 26.8853C13.2651 26.8853 12.7642 26.3845 12.7642 25.7698C12.7642 25.1552 13.2651 24.6544 13.8797 24.6544C14.4943 24.6544 14.9951 25.1552 14.9951 25.7698Z" fill="#032123"/>
</svg>
