<svg width="20" height="20" viewBox="0 0 20 20" fill="none" xmlns="http://www.w3.org/2000/svg">
<mask id="path-1-inside-1_4919_245" fill="white">
<path d="M10.0515 0.95118C11.2275 0.945524 12.3932 1.17184 13.4818 1.61722C14.5705 2.06259 15.5609 2.7183 16.3965 3.5469C17.2321 4.37551 17.8965 5.36078 18.3517 6.44647C18.807 7.53215 19.0442 8.69699 19.0499 9.87447L10.0945 9.91756L10.0515 0.95118Z"/>
</mask>
<path d="M10.0515 0.95118C11.2275 0.945524 12.3932 1.17184 13.4818 1.61722C14.5705 2.06259 15.5609 2.7183 16.3965 3.5469C17.2321 4.37551 17.8965 5.36078 18.3517 6.44647C18.807 7.53215 19.0442 8.69699 19.0499 9.87447L10.0945 9.91756L10.0515 0.95118Z" stroke="#757575" stroke-width="2" mask="url(#path-1-inside-1_4919_245)"/>
<mask id="path-2-inside-2_4919_245" fill="white">
<path d="M17.9109 10.9665C17.9109 12.7399 17.3857 14.4735 16.4016 15.948C15.4176 17.4225 14.0189 18.5718 12.3825 19.2504C10.7461 19.9291 8.94551 20.1066 7.20832 19.7607C5.47114 19.4147 3.87543 18.5607 2.62299 17.3067C1.37055 16.0528 0.517624 14.4551 0.172076 12.7158C-0.173471 10.9764 0.00387624 9.17357 0.681692 7.53516C1.35951 5.89675 2.50735 4.49637 3.98006 3.51112C5.45278 2.52587 7.18422 2 8.95544 2V10.9665H17.9109Z"/>
</mask>
<path d="M17.9109 10.9665C17.9109 12.7399 17.3857 14.4735 16.4016 15.948C15.4176 17.4225 14.0189 18.5718 12.3825 19.2504C10.7461 19.9291 8.94551 20.1066 7.20832 19.7607C5.47114 19.4147 3.87543 18.5607 2.62299 17.3067C1.37055 16.0528 0.517624 14.4551 0.172076 12.7158C-0.173471 10.9764 0.00387624 9.17357 0.681692 7.53516C1.35951 5.89675 2.50735 4.49637 3.98006 3.51112C5.45278 2.52587 7.18422 2 8.95544 2V10.9665H17.9109Z" stroke="#757575" stroke-width="2" mask="url(#path-2-inside-2_4919_245)"/>
<path d="M4.29177 16.6375V15.2988C3.74242 15.1742 3.26822 14.9355 2.86916 14.5827C2.47011 14.2298 2.17729 13.7317 1.99072 13.0883L3.14125 12.6213C3.29672 13.1194 3.52735 13.4982 3.83312 13.7577C4.13889 14.0171 4.54054 14.1468 5.03806 14.1468C5.46303 14.1468 5.82322 14.0508 6.11862 13.8588C6.41403 13.6668 6.56173 13.3685 6.56173 12.9637C6.56173 12.6005 6.44771 12.3125 6.21968 12.0998C5.99165 11.887 5.46303 11.6458 4.63382 11.3759C3.74242 11.0957 3.13088 10.761 2.7992 10.3719C2.46752 9.9827 2.30168 9.50792 2.30168 8.94751C2.30168 8.27295 2.51934 7.74887 2.95468 7.37526C3.39001 7.00166 3.83571 6.78891 4.29177 6.73702V5.42941H5.53559V6.73702C6.05384 6.82005 6.4814 7.00944 6.81827 7.30521C7.15513 7.60098 7.4013 7.96161 7.55678 8.38711L6.40625 8.88524C6.28187 8.55315 6.10567 8.30408 5.87763 8.13804C5.6496 7.97199 5.33865 7.88897 4.94477 7.88897C4.48871 7.88897 4.14148 7.99015 3.90308 8.19252C3.66469 8.39489 3.54549 8.64655 3.54549 8.94751C3.54549 9.28998 3.70096 9.5598 4.01192 9.75698C4.32287 9.95416 4.86185 10.1617 5.62887 10.3797C6.34406 10.5872 6.88564 10.9167 7.2536 11.3681C7.62156 11.8196 7.80554 12.3411 7.80554 12.9326C7.80554 13.6694 7.58787 14.2298 7.15254 14.6138C6.71721 14.9978 6.17822 15.2365 5.53559 15.3299V16.6375H4.29177Z" fill="#757575"/>
<path d="M14.851 8.60464C15.0843 8.60464 15.2825 8.52291 15.4457 8.35946C15.609 8.19601 15.6906 7.99753 15.6906 7.76403C15.6906 7.53053 15.609 7.33205 15.4457 7.1686C15.2825 7.00515 15.0843 6.92342 14.851 6.92342C14.6178 6.92342 14.4196 7.00515 14.2563 7.1686C14.0931 7.33205 14.0115 7.53053 14.0115 7.76403C14.0115 7.99753 14.0931 8.19601 14.2563 8.35946C14.4196 8.52291 14.6178 8.60464 14.851 8.60464ZM12.0245 8.57662L15.6626 4.93399L14.879 4.14942L11.2409 7.79205L12.0245 8.57662ZM12.0525 5.80261C12.2857 5.80261 12.4839 5.72089 12.6472 5.55744C12.8104 5.39399 12.892 5.19551 12.892 4.96201C12.892 4.7285 12.8104 4.53003 12.6472 4.36658C12.4839 4.20312 12.2857 4.1214 12.0525 4.1214C11.8192 4.1214 11.621 4.20312 11.4578 4.36658C11.2945 4.53003 11.2129 4.7285 11.2129 4.96201C11.2129 5.19551 11.2945 5.39399 11.4578 5.55744C11.621 5.72089 11.8192 5.80261 12.0525 5.80261Z" fill="#757575"/>
</svg>
