<svg width="32" height="33" viewBox="0 0 32 33" fill="none" xmlns="http://www.w3.org/2000/svg">
<path fill-rule="evenodd" clip-rule="evenodd" d="M18.2566 13.9112V12.5C18.2566 11.264 17.2486 10.256 16.0125 10.256C14.7765 10.256 13.7685 11.264 13.7685 12.5V13.9112H13.3389C13.3389 13.9112 13.3389 13.9112 13.3322 13.9112H13.3256H12.896V12.5C12.896 10.7831 14.294 9.38428 16.0117 9.38428C17.7295 9.38428 19.1274 10.7823 19.1274 12.5V13.9112H18.2566Z" fill="#032123"/>
<path fill-rule="evenodd" clip-rule="evenodd" d="M9.8857 25.2672C9.385 25.2672 8.97519 25.677 8.97519 26.1777V27.5046C8.97519 28.0053 9.385 28.4151 9.8857 28.4151C10.3864 28.4151 10.7962 28.0053 10.7962 27.5046V26.1777C10.7962 25.677 10.393 25.2672 9.8857 25.2672ZM9.8857 29.2868C8.90331 29.2868 8.10352 28.487 8.10352 27.5046V26.1777C8.10352 25.1953 8.90331 24.3955 9.8857 24.3955C10.8681 24.3955 11.6679 25.1953 11.6679 26.1777V27.5046C11.6745 28.487 10.8747 29.2868 9.8857 29.2868Z" fill="#032123"/>
<path fill-rule="evenodd" clip-rule="evenodd" d="M14.0615 29.2866C13.8211 29.2866 13.6261 29.0916 13.6261 28.8512V25.8916L13.4443 26.0734C13.2749 26.2428 12.9957 26.2494 12.8263 26.0734C12.6569 25.904 12.6503 25.6248 12.8263 25.4554L13.7566 24.5184C13.8806 24.3945 14.069 24.3557 14.2317 24.421C14.3945 24.4862 14.5052 24.649 14.5052 24.8242V28.8438C14.4978 29.0916 14.302 29.2866 14.0615 29.2866Z" fill="#032123"/>
<path fill-rule="evenodd" clip-rule="evenodd" d="M15.1413 29.2869H12.9882C12.7477 29.2869 12.5527 29.0919 12.5527 28.8514C12.5527 28.611 12.7477 28.416 12.9882 28.416H15.1413C15.3818 28.416 15.5767 28.611 15.5767 28.8514C15.5767 29.0919 15.3818 29.2869 15.1413 29.2869Z" fill="#032123"/>
<path fill-rule="evenodd" clip-rule="evenodd" d="M18.2373 25.2672C17.7366 25.2672 17.3268 25.677 17.3268 26.1777V27.5046C17.3268 28.0053 17.7366 28.4151 18.2373 28.4151C18.738 28.4151 19.1478 28.0053 19.1478 27.5046V26.1777C19.1412 25.677 18.7314 25.2672 18.2373 25.2672ZM18.2373 29.2868C17.2549 29.2868 16.4551 28.487 16.4551 27.5046V26.1777C16.4551 25.1953 17.2549 24.3955 18.2373 24.3955C19.2197 24.3955 20.0194 25.1961 20.0194 26.1777V27.5046C20.0194 28.487 19.2197 29.2868 18.2373 29.2868Z" fill="#032123"/>
<path fill-rule="evenodd" clip-rule="evenodd" d="M22.4065 29.2866C22.166 29.2866 21.971 29.0916 21.971 28.8512V25.885L21.7827 26.0734C21.6133 26.2428 21.334 26.2428 21.1646 26.0734C20.9953 25.904 20.9953 25.6248 21.1646 25.4554L22.1016 24.5184C22.2255 24.3945 22.4139 24.3557 22.5767 24.421C22.7394 24.4862 22.8501 24.649 22.8501 24.8242V28.8438C22.8419 29.0916 22.6469 29.2866 22.4065 29.2866Z" fill="#032123"/>
<path fill-rule="evenodd" clip-rule="evenodd" d="M23.4855 29.2869H21.3265C21.0861 29.2869 20.8911 29.0919 20.8911 28.8514C20.8911 28.611 21.0861 28.416 21.3265 28.416H23.4855C23.7259 28.416 23.9209 28.611 23.9209 28.8514C23.9217 29.0919 23.7267 29.2869 23.4855 29.2869Z" fill="#032123"/>
<path fill-rule="evenodd" clip-rule="evenodd" d="M9.8857 4.68222C9.385 4.68222 8.97519 5.09203 8.97519 5.59934V6.91966C8.97519 7.42036 9.385 7.83017 9.8857 7.83017C10.3864 7.83017 10.7962 7.42036 10.7962 6.91966V5.59273C10.7962 5.09203 10.393 4.68222 9.8857 4.68222ZM9.8857 8.70102C8.90331 8.70102 8.10352 7.90123 8.10352 6.91884V5.59934C8.10352 4.61034 8.90331 3.81055 9.8857 3.81055C10.8681 3.81055 11.6679 4.61034 11.6679 5.59273V6.91966C11.6745 7.90123 10.8747 8.70102 9.8857 8.70102Z" fill="#032123"/>
<path fill-rule="evenodd" clip-rule="evenodd" d="M14.0615 8.70119C13.8211 8.70119 13.6261 8.5062 13.6261 8.26577V5.3062L13.4443 5.48797C13.2749 5.65735 12.9957 5.66396 12.8263 5.48797C12.6569 5.31859 12.6503 5.03933 12.8263 4.86995L13.7566 3.933C13.8806 3.80907 14.069 3.77023 14.2317 3.8355C14.3945 3.90078 14.5052 4.06355 14.5052 4.23871V8.25833C14.4978 8.5062 14.302 8.70119 14.0615 8.70119Z" fill="#032123"/>
<path fill-rule="evenodd" clip-rule="evenodd" d="M15.1413 8.70142H12.9882C12.7477 8.70142 12.5527 8.50643 12.5527 8.26599C12.5527 8.02556 12.7477 7.83057 12.9882 7.83057H15.1413C15.3818 7.83057 15.5767 8.02556 15.5767 8.26599C15.5767 8.50643 15.3818 8.70142 15.1413 8.70142Z" fill="#032123"/>
<path fill-rule="evenodd" clip-rule="evenodd" d="M18.2373 4.68222C17.7366 4.68222 17.3268 5.09203 17.3268 5.59934V6.91966C17.3268 7.42036 17.7366 7.83017 18.2373 7.83017C18.738 7.83017 19.1478 7.42036 19.1478 6.91966V5.59273C19.1412 5.09203 18.7314 4.68222 18.2373 4.68222ZM18.2373 8.70102C17.2549 8.70102 16.4551 7.90123 16.4551 6.91884V5.59934C16.4551 4.61034 17.2549 3.81055 18.2373 3.81055C19.2197 3.81055 20.0194 4.61034 20.0194 5.59273V6.91966C20.0194 7.90123 19.2197 8.70102 18.2373 8.70102Z" fill="#032123"/>
<path fill-rule="evenodd" clip-rule="evenodd" d="M22.4065 8.70119C22.166 8.70119 21.971 8.5062 21.971 8.26577V5.29959L21.7827 5.48797C21.6133 5.65735 21.334 5.65735 21.1646 5.48797C20.9953 5.31859 20.9953 5.03933 21.1646 4.86995L22.1016 3.933C22.2255 3.80907 22.4139 3.77023 22.5767 3.8355C22.7394 3.90078 22.8501 4.06355 22.8501 4.23871V8.25833C22.8419 8.5062 22.6469 8.70119 22.4065 8.70119Z" fill="#032123"/>
<path fill-rule="evenodd" clip-rule="evenodd" d="M23.4855 8.70142H21.3265C21.0861 8.70142 20.8911 8.50643 20.8911 8.26599C20.8911 8.02556 21.0861 7.83057 21.3265 7.83057H23.4855C23.7259 7.83057 23.9209 8.02556 23.9209 8.26599C23.9217 8.50643 23.7267 8.70142 23.4855 8.70142Z" fill="#032123"/>
<path fill-rule="evenodd" clip-rule="evenodd" d="M23.4858 10.8546C22.9851 10.8546 22.5753 11.2644 22.5753 11.7651V13.092C22.5753 13.5927 22.9851 14.0025 23.4858 14.0025C23.9865 14.0025 24.3963 13.5927 24.3963 13.092V11.7651C24.3905 11.2578 23.9873 10.8546 23.4858 10.8546ZM23.4858 14.8742C22.5034 14.8742 21.7036 14.0744 21.7036 13.092V11.7651C21.7036 10.7827 22.5034 9.98291 23.4858 9.98291C24.4682 9.98291 25.268 10.7827 25.268 11.7651V13.092C25.268 14.0744 24.4682 14.8742 23.4858 14.8742Z" fill="#032123"/>
<path fill-rule="evenodd" clip-rule="evenodd" d="M23.4858 23.1215C23.2454 23.1215 23.0504 22.9265 23.0504 22.6861V19.7265L22.8554 19.9149C22.686 20.0843 22.4068 20.0843 22.2374 19.9149C22.068 19.7455 22.068 19.4663 22.2374 19.2969L23.1743 18.3666C23.2983 18.2426 23.4867 18.2038 23.6494 18.2757C23.8122 18.341 23.9163 18.5037 23.9163 18.6789V22.6919C23.9221 22.9257 23.7271 23.1215 23.4858 23.1215Z" fill="#032123"/>
<path fill-rule="evenodd" clip-rule="evenodd" d="M24.5587 23.1213H22.3998C22.1593 23.1213 21.9644 22.9263 21.9644 22.6859C21.9644 22.4455 22.1593 22.2505 22.3998 22.2505H24.5587C24.7992 22.2505 24.9942 22.4455 24.9942 22.6859C25.0016 22.9255 24.8058 23.1213 24.5587 23.1213Z" fill="#032123"/>
<path fill-rule="evenodd" clip-rule="evenodd" d="M8.54652 19.1086C8.29947 19.1086 8.07143 19.2061 7.89627 19.3755C7.72689 19.5449 7.63601 19.7721 7.63601 20.0125V21.346C7.63601 21.8467 8.04582 22.2566 8.54652 22.2566C9.04722 22.2566 9.45703 21.8467 9.45703 21.346V20.0191C9.45703 19.5118 9.04722 19.1086 8.54652 19.1086ZM8.54652 23.1274C8.07143 23.1274 7.62279 22.939 7.28486 22.6069C6.94693 22.2689 6.76433 21.8195 6.76433 21.3452V20.0117C6.75772 19.5432 6.94032 19.0946 7.27825 18.7566C7.61618 18.4187 8.06565 18.2295 8.54652 18.2295C9.52891 18.2295 10.3287 19.0293 10.3287 20.0117V21.3386C10.3345 22.3276 9.53469 23.1274 8.54652 23.1274Z" fill="#032123"/>
<path fill-rule="evenodd" clip-rule="evenodd" d="M8.54633 14.8674C8.3059 14.8674 8.11091 14.6724 8.11091 14.432V11.4724L7.92914 11.6542C7.75976 11.8236 7.48049 11.8236 7.31112 11.6542C7.14174 11.4848 7.14174 11.2056 7.31112 11.0362L8.24145 10.1059C8.36539 9.98192 8.55377 9.94308 8.71654 10.0084C8.87931 10.0736 8.99002 10.2364 8.99002 10.4116V14.4246C8.98176 14.6724 8.78677 14.8674 8.54633 14.8674Z" fill="#032123"/>
<path fill-rule="evenodd" clip-rule="evenodd" d="M9.61984 14.8674H7.46667C7.22624 14.8674 7.03125 14.6724 7.03125 14.432C7.03125 14.1916 7.22624 13.9966 7.46667 13.9966H9.61984C9.86027 13.9966 10.0553 14.1916 10.0553 14.432C10.0619 14.6724 9.86027 14.8674 9.61984 14.8674Z" fill="#032123"/>
<path fill-rule="evenodd" clip-rule="evenodd" d="M2.13318 8.95501C1.89274 8.95501 1.69775 8.76002 1.69775 8.51959V2.53601C1.69775 2.29558 1.89274 2.10059 2.13318 2.10059H8.11676C8.35719 2.10059 8.55218 2.29558 8.55218 2.53601C8.55218 2.77644 8.35719 2.97144 8.11676 2.97144H2.57521V8.51298C2.57521 8.76002 2.37361 8.95501 2.13318 8.95501Z" fill="#032123"/>
<path fill-rule="evenodd" clip-rule="evenodd" d="M29.8987 8.95475C29.6583 8.95475 29.4633 8.75976 29.4633 8.51933V2.97778H23.9218C23.6813 2.97778 23.4863 2.78279 23.4863 2.54236C23.4863 2.30192 23.6813 2.10693 23.9218 2.10693H29.9053C30.1458 2.10693 30.3408 2.30192 30.3408 2.54236V8.52594C30.335 8.75976 30.1392 8.95475 29.8987 8.95475Z" fill="#032123"/>
<path fill-rule="evenodd" clip-rule="evenodd" d="M8.11676 30.997H2.13318C1.89274 30.997 1.69775 30.802 1.69775 30.5616V24.578C1.69775 24.3376 1.89274 24.1426 2.13318 24.1426C2.37361 24.1426 2.5686 24.3376 2.5686 24.578V30.1195H8.11015C8.35058 30.1195 8.54557 30.3145 8.54557 30.555C8.55301 30.802 8.35719 30.997 8.11676 30.997Z" fill="#032123"/>
<path fill-rule="evenodd" clip-rule="evenodd" d="M29.899 30.9972H23.9154C23.675 30.9972 23.48 30.8022 23.48 30.5618C23.48 30.3214 23.675 30.1264 23.9154 30.1264H29.4569V24.5848C29.4569 24.3444 29.6519 24.1494 29.8924 24.1494C30.1328 24.1494 30.3278 24.3444 30.3278 24.5848V30.5684C30.3352 30.8022 30.1394 30.9972 29.899 30.9972Z" fill="#032123"/>
<path fill-rule="evenodd" clip-rule="evenodd" d="M16.02 15.9474C17.0735 15.9474 17.9253 16.7992 17.9253 17.8527C17.9253 18.7499 17.3007 19.5109 16.4554 19.7059V21.2344C16.4554 21.4749 16.2604 21.6699 16.02 21.6699C15.7796 21.6699 15.5846 21.4749 15.5846 21.2344V19.7059C14.746 19.5109 14.1147 18.7499 14.1147 17.8527C14.1139 16.7992 14.9657 15.9474 16.02 15.9474ZM12.3515 14.7898C12.2152 14.7898 12.1045 14.9005 12.1045 15.0369V22.5878C12.1045 22.5944 12.1045 22.6076 12.1045 22.6134V22.62C12.1243 22.744 12.2218 22.8282 12.3449 22.8282H19.6819C19.8182 22.8282 19.9289 22.7175 19.9289 22.5812V15.0302C19.9289 14.8939 19.8182 14.7832 19.6819 14.7832H18.6929H13.3397H13.3331H13.3265H12.3507V14.7898H12.3515Z" fill="#032123"/>
<path fill-rule="evenodd" clip-rule="evenodd" d="M16.02 16.8188C15.4541 16.8188 14.9922 17.2807 14.9922 17.8467C14.9922 18.4127 15.4541 18.8745 16.02 18.8745C16.586 18.8745 17.0479 18.4127 17.0479 17.8467C17.047 17.2807 16.5852 16.8188 16.02 16.8188Z" fill="#032123"/>
</svg>
