<svg width="22" height="23" viewBox="0 0 22 23" fill="none" xmlns="http://www.w3.org/2000/svg">
<path d="M7.64004 20.0586C5.90671 19.2586 4.49837 18.0503 3.41504 16.4336C2.33171 14.8169 1.79004 12.9919 1.79004 10.9586C1.79004 10.5253 1.81087 10.1003 1.85254 9.68359C1.89421 9.26693 1.96504 8.85859 2.06504 8.45859L0.915039 9.13359L-0.0849609 7.40859L4.69004 4.65859L7.44004 9.40859L5.69004 10.4086L4.34004 8.05859C4.15671 8.50859 4.01921 8.97526 3.92754 9.45859C3.83587 9.94193 3.79004 10.4419 3.79004 10.9586C3.79004 12.5753 4.23171 14.0461 5.11504 15.3711C5.99837 16.6961 7.17337 17.6753 8.64004 18.3086L7.64004 20.0586ZM15.29 7.93359V5.93359H18.015C17.2484 4.98359 16.3234 4.24609 15.24 3.72109C14.1567 3.19609 13.0067 2.93359 11.79 2.93359C10.8734 2.93359 10.0067 3.07526 9.19004 3.35859C8.37337 3.64193 7.62337 4.04193 6.94004 4.55859L5.94004 2.80859C6.77337 2.22526 7.68171 1.76693 8.66504 1.43359C9.64837 1.10026 10.69 0.933594 11.79 0.933594C13.1067 0.933594 14.365 1.17943 15.565 1.67109C16.765 2.16276 17.84 2.87526 18.79 3.80859V2.43359H20.79V7.93359H15.29ZM14.64 22.9336L9.86504 20.1836L12.615 15.4336L14.34 16.4336L12.915 18.8836C14.8817 18.6003 16.5192 17.7086 17.8275 16.2086C19.1359 14.7086 19.79 12.9503 19.79 10.9336C19.79 10.7503 19.7859 10.5794 19.7775 10.4211C19.7692 10.2628 19.7484 10.1003 19.715 9.93359H21.74C21.7567 10.1003 21.7692 10.2628 21.7775 10.4211C21.7859 10.5794 21.79 10.7503 21.79 10.9336C21.79 13.1836 21.1192 15.1961 19.7775 16.9711C18.4359 18.7461 16.69 19.9419 14.54 20.5586L15.64 21.2086L14.64 22.9336Z" fill="#B7BDC6"/>
</svg>
