<svg width="28" height="27" viewBox="0 0 28 27" fill="none" xmlns="http://www.w3.org/2000/svg">
<path d="M13.9998 26.8332C12.1554 26.8332 10.4221 26.4832 8.79984 25.7832C7.17761 25.0832 5.7665 24.1332 4.5665 22.9332C3.3665 21.7332 2.4165 20.3221 1.7165 18.6998C1.0165 17.0776 0.666504 15.3443 0.666504 13.4998C0.666504 11.6554 1.0165 9.92206 1.7165 8.29984C2.4165 6.67761 3.3665 5.2665 4.5665 4.0665C5.7665 2.8665 7.17761 1.9165 8.79984 1.2165C10.4221 0.516504 12.1554 0.166504 13.9998 0.166504C14.4443 0.166504 14.8887 0.194282 15.3332 0.249837C15.7776 0.305393 16.2221 0.355393 16.6665 0.399837V3.13317C16.2221 3.08873 15.7776 3.03873 15.3332 2.98317C14.8887 2.92761 14.4443 2.89984 13.9998 2.89984C13.4221 3.69984 12.9221 4.53873 12.4998 5.4165C12.0776 6.29428 11.7332 7.21095 11.4665 8.1665H15.3332V10.8332H10.8665C10.7998 11.2776 10.7498 11.7221 10.7165 12.1665C10.6832 12.6109 10.6665 13.0554 10.6665 13.4998C10.6665 13.9443 10.6832 14.3887 10.7165 14.8332C10.7498 15.2776 10.7998 15.7221 10.8665 16.1665H17.1332C17.1998 15.7221 17.2498 15.2776 17.2832 14.8332C17.3165 14.3887 17.3332 13.9443 17.3332 13.4998C17.3332 13.0554 17.3165 12.6109 17.2832 12.1665C17.2498 11.7221 17.1998 11.2776 17.1332 10.8332H19.7998C19.8665 11.2776 19.9165 11.7221 19.9498 12.1665C19.9832 12.6109 19.9998 13.0554 19.9998 13.4998C19.9998 13.9443 19.9832 14.3887 19.9498 14.8332C19.9165 15.2776 19.8665 15.7221 19.7998 16.1665H24.3332C24.4443 15.7221 24.5276 15.2776 24.5832 14.8332C24.6387 14.3887 24.6665 13.9443 24.6665 13.4998C24.6665 13.0554 24.6387 12.6109 24.5832 12.1665C24.5276 11.7221 24.4443 11.2776 24.3332 10.8332H27.0665C27.1554 11.2776 27.2221 11.7221 27.2665 12.1665C27.3109 12.6109 27.3332 13.0554 27.3332 13.4998C27.3332 15.3443 26.9832 17.0776 26.2832 18.6998C25.5832 20.3221 24.6332 21.7332 23.4332 22.9332C22.2332 24.1332 20.8221 25.0832 19.1998 25.7832C17.5776 26.4832 15.8443 26.8332 13.9998 26.8332ZM3.6665 16.1665H8.19984C8.13317 15.7221 8.08317 15.2776 8.04984 14.8332C8.0165 14.3887 7.99984 13.9443 7.99984 13.4998C7.99984 13.0554 8.0165 12.6109 8.04984 12.1665C8.08317 11.7221 8.13317 11.2776 8.19984 10.8332H3.6665C3.55539 11.2776 3.47206 11.7221 3.4165 12.1665C3.36095 12.6109 3.33317 13.0554 3.33317 13.4998C3.33317 13.9443 3.36095 14.3887 3.4165 14.8332C3.47206 15.2776 3.55539 15.7221 3.6665 16.1665ZM10.5332 23.5665C10.1332 22.8109 9.78317 22.0387 9.48317 21.2498C9.18317 20.4609 8.93317 19.6554 8.73317 18.8332H4.79984C5.44428 19.9665 6.25539 20.9387 7.23317 21.7498C8.21095 22.5609 9.31095 23.1665 10.5332 23.5665ZM4.79984 8.1665H8.73317C8.93317 7.34428 9.18317 6.53873 9.48317 5.74984C9.78317 4.96095 10.1332 4.18873 10.5332 3.43317C9.31095 3.83317 8.21095 4.43873 7.23317 5.24984C6.25539 6.06095 5.44428 7.03317 4.79984 8.1665ZM13.9998 24.0998C14.5776 23.2998 15.0776 22.4609 15.4998 21.5832C15.9221 20.7054 16.2665 19.7887 16.5332 18.8332H11.4665C11.7332 19.7887 12.0776 20.7054 12.4998 21.5832C12.9221 22.4609 13.4221 23.2998 13.9998 24.0998ZM17.4665 23.5665C18.6887 23.1665 19.7887 22.5609 20.7665 21.7498C21.7443 20.9387 22.5554 19.9665 23.1998 18.8332H19.2665C19.0665 19.6554 18.8165 20.4609 18.5165 21.2498C18.2165 22.0387 17.8665 22.8109 17.4665 23.5665ZM19.3332 8.1665V0.166504H27.3332V8.1665H19.3332ZM23.3332 4.1665H25.9998V1.49984H23.3332V4.1665Z" fill="#032123"/>
</svg>
