<svg width="18" height="19" viewBox="0 0 18 19" fill="none" xmlns="http://www.w3.org/2000/svg">
<path d="M0.930128 1.08207C0.930128 0.760601 1.18878 0.5 1.50784 0.5H15.4767C16.3538 0.5 17.0648 1.21634 17.0648 2.1V3.54386C17.0648 4.36868 16.7487 5.16165 16.1824 5.75732L10.4297 11.8087V4.82913H4.64915C2.59519 4.82913 0.930128 3.15151 0.930128 1.08207Z" fill="#032123"/>
<path d="M17.0643 17.9179C17.0643 18.2394 16.8057 18.5 16.4866 18.5H2.51771C1.64067 18.5 0.929688 17.7837 0.929688 16.9V15.4561C0.929688 14.6313 1.2458 13.8383 1.81206 13.2427L7.56475 7.19127V14.1709H13.3453C15.3993 14.1709 17.0643 15.8485 17.0643 17.9179Z" fill="#032123"/>
</svg>
